HIERARCHY
ROOT Hips
{
    OFFSET 0.000000 0.000000 0.000000
    CHANNELS 6 Xposition Yposition Zposition Zrotation Xrotation Yrotation
    JOINT Spine
    {
        OFFSET -0.000000 14.517291 0.000000
        CHANNELS 3 Zrotation Xrotation Yrotation
        JOINT Spine1
        {
            OFFSET -0.000000 37.558300 0.000000
            CHANNELS 3 Zrotation Xrotation Yrotation
            JOINT Neck
            {
                OFFSET -0.000000 37.404057 3.400369
                CHANNELS 3 Zrotation Xrotation Yrotation
                JOINT Head
                {
                    OFFSET -0.000000 24.785618 -3.540803
                    CHANNELS 3 Zrotation Xrotation Yrotation
                    End Site
                    {
                        OFFSET -0.000000 35.408028 0.000000
                    }
                }
            }
            JOINT LeftShoulder
            {
                OFFSET 6.992933 33.973492 -0.192664
                CHANNELS 3 Zrotation Xrotation Yrotation
                JOINT LeftArm
                {
                    OFFSET 21.527611 0.000000 0.000000
                    CHANNELS 3 Zrotation Xrotation Yrotation
                    JOINT LeftForeArm
                    {
                        OFFSET 56.353916 0.000000 0.000000
                        CHANNELS 3 Zrotation Xrotation Yrotation
                        JOINT LeftHand
                        {
                            OFFSET 47.774071 0.000000 0.000000
                            CHANNELS 3 Zrotation Xrotation Yrotation
                            End Site
                            {
                                OFFSET 26.556021 0.000000 0.000000
                            }
                        }
                    }
                }
            }
            JOINT RightShoulder
            {
                OFFSET -7.065357 33.973492 -0.192664
                CHANNELS 3 Zrotation Xrotation Yrotation
                JOINT RightArm
                {
                    OFFSET -21.527611 0.000000 0.000000
                    CHANNELS 3 Zrotation Xrotation Yrotation
                    JOINT RightForeArm
                    {
                        OFFSET -56.353916 0.000000 0.000000
                        CHANNELS 3 Zrotation Xrotation Yrotation
                        JOINT RightHand
                        {
                            OFFSET -47.774071 0.000000 0.000000
                            CHANNELS 3 Zrotation Xrotation Yrotation
                            End Site
                            {
                                OFFSET -26.556021 0.000000 0.000000
                            }
                        }
                    }
                }
            }
        }
    }
    JOINT LeftUpLeg
    {
        OFFSET 17.704014 0.000000 0.000000
        CHANNELS 3 Zrotation Xrotation Yrotation
        JOINT LeftLeg
        {
            OFFSET -0.000000 -81.181816 0.000000
            CHANNELS 3 Zrotation Xrotation Yrotation
            JOINT LeftFoot
            {
                OFFSET -0.000000 -62.821102 0.000000
                CHANNELS 3 Zrotation Xrotation Yrotation
                JOINT LeftToeBase
                {
                    OFFSET -0.000000 -11.507608 26.556021
                    CHANNELS 3 Zrotation Xrotation Yrotation
                    End Site
                    {
                        OFFSET -0.000000 0.000000 7.081605
                    }
                }
            }
        }
    }
    JOINT RightUpLeg
    {
        OFFSET -17.704014 0.000000 0.000000
        CHANNELS 3 Zrotation Xrotation Yrotation
        JOINT RightLeg
        {
            OFFSET -0.000000 -81.181816 0.000000
            CHANNELS 3 Zrotation Xrotation Yrotation
            JOINT RightFoot
            {
                OFFSET -0.000000 -62.821102 0.000000
                CHANNELS 3 Zrotation Xrotation Yrotation
                JOINT RightToeBase
                {
                    OFFSET -0.000000 -11.507608 26.556021
                    CHANNELS 3 Zrotation Xrotation Yrotation
                    End Site
                    {
                        OFFSET -0.000000 0.000000 7.081605
                    }
                }
            }
        }
    }
}
MOTION
Frames:    4
Frame Time:    0.008333
-4.470605    161.989410    -66.043091    -0.795418    -5.506555    35.350689    0.776416    -0.713431    -2.050764    -4.476646    2.833978    -0.575174    2.986859    2.004405    -15.589802    12.883338    3.629484    -15.241169    4.966503    8.461189    -18.386217    -27.853901    21.416327    -54.797508    -1.789718    -9.342810    -105.679810    5.888576    -12.217302    -10.946417    -8.559813    0.736416    -2.196752    25.236876    -20.322830    50.600052    -20.973980    -18.942316    66.953056    0.080688    -5.167168    34.780830    12.626994    0.656132    -7.334943    -8.200629    20.386263    -22.470575    1.164447    -18.159924    40.975983    0.000000    0.000000    0.000000    2.480379    -5.354976    -3.874191    8.431842    17.977358    -8.596025    -5.958607    -8.098468    -20.992996    0.000000    0.000000    0.000000    
-4.508330    161.975327    -66.053558    -0.780370    -5.489132    35.350475    0.655444    -0.809531    -1.063487    -4.978642    3.809612    -0.191287    4.771144    0.402920    -16.017355    11.641289    3.820772    -16.145767    7.079386    7.872838    -18.879824    -28.411541    21.358332    -56.679798    -1.634871    -9.519650    -105.184319    5.981691    -12.174526    -10.788141    -7.717055    -0.043345    -4.472202    24.372477    -19.427111    50.923702    -21.587906    -19.854683    65.970886    0.506957    -5.840166    35.309185    12.614054    0.632316    -7.363939    -8.211640    20.397287    -22.436857    1.130859    -18.182484    40.975380    0.000000    0.000000    0.000000    2.456815    -5.429323    -3.901268    8.450921    18.101866    -8.591711    -5.988122    -8.133833    -20.981541    0.000000    0.000000    0.000000    
-4.553070    161.960983    -66.062752    -0.757298    -5.470468    35.353813    0.817271    -0.623756    -1.982210    -4.519876    2.813762    -0.551790    3.004893    2.031183    -15.601668    12.758246    3.480750    -15.252080    4.969224    8.466110    -18.452702    -27.897699    21.330738    -54.820484    -1.811031    -9.287512    -105.635521    6.042057    -12.200783    -10.911056    -8.598328    0.753237    -2.238535    25.242607    -20.412699    50.653988    -20.956736    -18.874647    66.930313    0.087039    -5.111877    34.843208    12.596865    0.610718    -7.389773    -8.217010    20.408173    -22.399824    1.118233    -18.181625    40.955032    0.000000    0.000000    0.000000    2.422345    -5.519310    -3.943914    8.478090    18.267900    -8.561554    -6.030905    -8.170597    -20.997063    0.000000    0.000000    0.000000    
-4.610190    161.943283    -66.073639    -0.737258    -5.448409    35.357666    0.711624    -0.689405    -1.021964    -5.058497    3.738370    -0.177642    4.789978    0.491275    -16.010191    11.546450    3.634036    -16.128284    7.074558    7.903416    -18.915058    -28.457581    21.279812    -56.691761    -1.641599    -9.468660    -105.125320    6.091830    -12.139282    -10.761420    -7.729815    -0.025750    -4.437025    24.365662    -19.508911    50.943829    -21.613945    -19.800299    65.932854    0.474478    -5.785387    35.387695    12.587853    0.575851    -7.404729    -8.234174    20.430256    -22.367506    1.109510    -18.183035    40.934097    0.000000    0.000000    0.000000    2.389272    -5.622436    -3.986380    8.511972    18.446764    -8.533983    -6.058785    -8.209262    -21.018057    0.000000    0.000000    0.000000    
